PathFileType	4	(X/Y/Z)	C:/Users/opensim2020/Desktop/walking_exp_matlab/subject01_walking12_straight_01.trc																																																																																																																																		
DataRate	CameraRate	NumFrames	NumMarkers	Units	OrigDataRate	OrigDataStartFrame	OrigNumFrames																																																																																																																														
100	100	8	44	mm	100	739	193																																																																																																																														
Frame#	Time	LFHD			RFHD			LBHD			RBHD			C7			T10			CLAV			STRN			RBAK			LSHO			LUPA			LELB			LFRM			LWRA			LWRB			LFIN			RSHO			RUPA			RELB			RFRM			RWRA			RWRB			RFIN			LASI			RASI			LPSI			RPSI			LTHI			LKNE			LTIB			LANK			LHEE			LTOE			RTHI			RKNE			RTIB			RANK			RHEE			RTOE			*39			*40			*41			*42			*43		
		X1	Y1	Z1	X2	Y2	Z2	X3	Y3	Z3	X4	Y4	Z4	X5	Y5	Z5	X6	Y6	Z6	X7	Y7	Z7	X8	Y8	Z8	X9	Y9	Z9	X10	Y10	Z10	X11	Y11	Z11	X12	Y12	Z12	X13	Y13	Z13	X14	Y14	Z14	X15	Y15	Z15	X16	Y16	Z16	X17	Y17	Z17	X18	Y18	Z18	X19	Y19	Z19	X20	Y20	Z20	X21	Y21	Z21	X22	Y22	Z22	X23	Y23	Z23	X24	Y24	Z24	X25	Y25	Z25	X26	Y26	Z26	X27	Y27	Z27	X28	Y28	Z28	X29	Y29	Z29	X30	Y30	Z30	X31	Y31	Z31	X32	Y32	Z32	X33	Y33	Z33	X34	Y34	Z34	X35	Y35	Z35	X36	Y36	Z36	X37	Y37	Z37	X38	Y38	Z38	X39	Y39	Z39	X40	Y40	Z40	X41	Y41	Z41	X42	Y42	Z42	X43	Y43	Z43	X44	Y44	Z44
																																																																																																																																					
121	1.2	151.9841	1670.10291	-1087.99622	156.85654	1672.08301	-973.6546	44.59688	1606.74158	-1090.7782	47.02279	1607.00073	-970.05029	26.07587	1423.21045	-1054.4386	-10.48298	1129.97925	-1049.36487	170.28392	1355.73413	-1046.40515	214.0378	1201.02356	-1057.49609	-30.65663	1224.60608	-985.81952	117.35539	1388.80713	-1209.5686	115.05096	1210.08276	-1303.21594	134.72884	1057.94263	-1319.20679	224.51329	984.92664	-1346.97852	352.92383	934.3114	-1334.90771	309.99442	898.72772	-1356.8623	386.77069	871.07953	-1373.28174	97.81985	1376.78687	-897.11658	13.7992	1178.94775	-811.81146	0.70353	1055.65881	-815.16528	2.51693	934.65125	-790.59332	53.15269	804.0589	-817.88617	11.73514	812.88196	-777.43011	30.38981	729.56592	-784.02478	150.9538	918.35107	-1170.30615	176.16699	924.52759	-956.26215	-28.20706	935.20953	-1094.59094	-10.55092	935.21991	-949.74762	52.34925	592.83966	-1221.88733	10.89929	462.17874	-1212.59668	-124.95947	327.73395	-1218.35608	-261.77896	153.35724	-1171.2937	-309.25183	159.34637	-1117.21875	-173.76595	33.13633	-1163.44055	198.41649	602.79205	-894.82397	249.84438	456.09995	-928.8468	232.83183	279.93344	-924.16144	249.03671	75.90504	-975.64874	205.04233	35.96088	-1028.83472	389.00287	43.83925	-972.7865	140.47534	1704.42737	-995.98596	1973.0802	1023.89722	-3102.01392	2012.43542	1022.07764	-3140.75049	NaN	NaN	NaN	NaN	NaN	NaN
122	1.21	162.84222	1670.71057	-1085.32666	168.36105	1672.66003	-971.17737	55.29231	1607.97693	-1087.953	58.14243	1608.10986	-967.31396	36.4833	1423.49976	-1052.11438	0.83472	1130.48779	-1047.92078	181.07669	1356.75732	-1044.44397	225.4218	1202.34009	-1055.85193	-19.03473	1224.76697	-983.70258	127.93275	1389.7926	-1207.37366	124.82095	1211.04688	-1301.05713	143.29153	1058.85474	-1317.15845	232.54016	985.2605	-1344.71973	360.34888	933.27527	-1332.31726	317.16516	898.08112	-1354.46191	393.83023	869.87585	-1370.72559	108.90033	1377.47681	-895.08618	27.06134	1178.79993	-809.57794	14.75951	1055.65015	-813.3562	17.03148	934.83246	-788.84698	67.77915	804.1814	-816.46814	26.34621	813.12048	-775.6842	45.10218	729.49506	-782.47803	163.36255	918.98584	-1168.26245	187.85301	925.86792	-954.38904	-16.00098	936.03271	-1093.75366	1.12233	937.43335	-948.62579	70.17886	591.67908	-1221.32849	30.01015	460.89844	-1213.49426	-110.31116	330.8765	-1218.78601	-251.14349	159.96822	-1171.58276	-296.42627	168.60338	-1116.47046	-172.53862	33.2447	-1162.80652	207.8145	602.87726	-893.57642	258.4679	455.341	-928.23596	239.10396	278.8725	-923.12543	250.3652	75.75034	-975.77557	205.41689	36.39091	-1028.66858	390.13397	42.46577	-973.38373	152.12038	1705.17419	-993.49567	1973.13696	1023.54797	-3102.0144	2012.48486	1022.05029	-3140.75781	NaN	NaN	NaN	NaN	NaN	NaN
123	1.22	174.01485	1671.53662	-1083.23181	179.89734	1673.13269	-968.81085	65.92988	1609.42249	-1085.3999	69.3536	1609.20203	-964.62561	46.67786	1423.9751	-1050.04358	12.08803	1130.87976	-1046.4906	191.77902	1357.81067	-1042.70935	236.66179	1203.49268	-1054.35828	-7.49071	1224.92798	-981.63318	138.24791	1390.78394	-1205.26453	134.63538	1212.09412	-1299.07434	151.56308	1059.78442	-1315.07971	240.21985	985.44257	-1342.41614	367.35876	931.91656	-1329.61853	323.90021	897.25061	-1352.05273	400.3782	868.35535	-1368.15955	120.0358	1378.21802	-893.22504	40.43178	1178.85938	-807.31726	28.86795	1055.75549	-811.48816	31.75331	935.14624	-787.07404	82.72013	804.51343	-814.83038	41.69541	813.42957	-773.72552	60.19784	729.56372	-780.98175	175.57042	919.67633	-1165.91943	199.21785	927.16718	-952.23157	-4.05337	936.81061	-1092.63037	12.67345	939.4386	-947.42896	88.47048	590.50739	-1221.05371	49.5265	459.7486	-1214.00293	-94.64642	334.25699	-1219.07483	-239.20578	166.45766	-1172.17078	-282.30383	177.95927	-1116.05078	-171.24625	33.46788	-1161.86865	216.59241	602.64435	-892.58472	266.47354	454.30627	-927.18298	244.21014	278.17145	-922.12286	251.29407	75.55417	-976.15198	205.71275	36.62236	-1028.63599	391.24878	41.60657	-974.08881	163.69276	1705.44067	-991.52203	1973.04834	1023.50189	-3101.98828	2012.5304	1022.12531	-3140.75757	NaN	NaN	NaN	NaN	NaN	NaN
124	1.23	185.24808	1672.24731	-1080.75891	191.38629	1673.46021	-966.52197	76.72314	1610.8689	-1082.84607	80.55865	1610.42383	-962.03558	56.91376	1424.32849	-1047.87427	23.42908	1131.1792	-1044.95947	202.3224	1358.80212	-1041.05237	247.71454	1204.65906	-1053.021	3.85059	1225.21167	-979.43524	148.27446	1391.78528	-1203.32166	144.3584	1213.10461	-1297.2644	159.57126	1060.73108	-1313.02539	247.58008	985.42303	-1340.19299	373.98544	930.27625	-1326.88062	330.21915	896.17273	-1349.6333	406.50711	866.47058	-1365.44214	131.14038	1379.23804	-891.3562	53.97649	1178.97656	-805.16095	43.1234	1056.01953	-809.57397	46.73325	935.53174	-785.1167	97.96199	804.91718	-813.29395	57.29308	813.77515	-771.80988	75.93037	729.8067	-779.32617	187.68411	920.44666	-1163.58997	210.24425	928.28363	-949.87286	7.7179	937.54987	-1091.38672	24.29403	941.01147	-946.1853	106.94434	589.50653	-1220.70251	69.20704	458.74237	-1214.25452	-78.04572	337.95276	-1219.02136	-226.26842	172.95705	-1173.17908	-267.45609	187.80093	-1116.44641	-169.21144	34.72307	-1161.07385	225.4727	602.41876	-891.53461	274.31561	453.77072	-926.10419	249.09106	278.09848	-921.95282	252.34383	75.52655	-976.47284	205.81586	36.86069	-1028.7041	392.14767	40.96281	-974.73212	175.29822	1705.97864	-989.02979	1973.25977	1023.48895	-3101.86743	2012.4967	1022.05957	-3140.70093	NaN	NaN	NaN	NaN	NaN	NaN
125	1.24	196.36197	1672.89661	-1078.48987	202.97159	1673.81738	-964.26068	87.53908	1612.43152	-1080.41931	91.56829	1611.55237	-959.80139	66.94101	1425.03296	-1045.85498	34.54471	1131.60669	-1043.31958	212.7773	1359.75171	-1039.60449	258.61026	1205.74414	-1051.79333	15.10914	1225.72766	-977.19055	158.02354	1392.79492	-1201.63184	153.97856	1214.09021	-1295.66675	167.3026	1061.53882	-1310.93958	254.60023	985.14832	-1337.83691	380.31219	928.3277	-1324.13037	336.16174	894.69049	-1346.89514	412.2482	864.13745	-1362.54187	142.27171	1380.11975	-889.80377	67.29356	1179.25635	-802.90674	57.48573	1056.29138	-807.62292	61.90729	935.94006	-783.13977	113.50374	805.39526	-811.71558	73.20781	814.22174	-769.82867	91.95121	730.10931	-777.69635	199.53481	921.26288	-1161.13293	221.08931	929.31085	-947.43225	19.32575	938.15594	-1089.974	35.38704	942.1615	-944.69177	125.30488	588.7207	-1220.02246	89.27361	457.92102	-1213.80042	-60.46149	341.74814	-1218.78052	-212.46992	180.02007	-1174.0929	-252.07057	197.78166	-1117.31873	-164.92143	38.02333	-1160.05432	233.6709	602.69763	-890.16565	280.76535	453.27197	-925.47809	253.13391	278.01682	-921.62421	252.79291	75.60788	-976.56824	205.6778	37.08608	-1028.77588	392.59073	40.53653	-974.99811	187.10324	1706.49414	-986.60052	1973.10095	1023.49066	-3101.91235	2012.51038	1022.05945	-3140.72974	NaN	NaN	NaN	NaN	NaN	NaN
126	1.25	207.79137	1673.90369	-1076.56018	214.58012	1674.20544	-962.05975	98.33398	1614.26379	-1078.41675	102.70115	1612.81555	-957.60071	77.29683	1425.59692	-1044.05371	45.52035	1132.18262	-1041.55334	223.15721	1360.72852	-1038.36951	269.30124	1206.85535	-1050.66882	26.09809	1226.48352	-974.76556	167.57036	1393.75159	-1200.31384	163.31767	1214.98181	-1294.22632	175.06502	1062.13354	-1308.77087	261.32312	984.59674	-1335.5083	386.26718	926.03003	-1321.34167	341.76541	893.1554	-1344.57996	417.58478	861.48871	-1359.73157	153.46951	1381.09753	-888.28265	80.79761	1179.5918	-800.61755	71.76852	1056.59814	-805.64874	77.14722	936.23071	-781.14337	129.38098	805.98145	-810.09979	89.48235	814.85547	-767.89093	108.57934	730.60437	-775.87311	211.29672	922.10822	-1158.82581	231.72369	930.25873	-945.08447	30.60907	938.56543	-1088.63208	46.00135	943.27246	-943.19104	143.33478	588.24652	-1218.94812	109.75972	457.31915	-1212.9574	-41.91576	345.49387	-1218.51294	-197.726	187.44914	-1174.50745	-235.97865	208.03435	-1118.14502	-158.71352	42.60677	-1159.32654	241.26035	603.0625	-888.75745	287.05106	453.02731	-923.80505	257.25516	277.91156	-921.19025	253.00542	75.70294	-976.48169	205.93288	37.0052	-1028.53577	392.82776	40.19505	-974.9126	198.87167	1707.13452	-984.26721	1973.03918	1023.52057	-3102.01782	2012.47595	1021.89014	-3140.76123	NaN	NaN	NaN	NaN	NaN	NaN
127	1.26	219.06866	1674.76062	-1074.38074	226.11316	1674.78821	-960.17053	109.23389	1616.03308	-1076.43567	113.79609	1614.23535	-955.72906	87.51085	1426.51709	-1042.35608	56.34603	1132.89575	-1039.76099	233.5006	1361.74268	-1037.25647	279.80823	1208.0011	-1049.63037	36.33809	1227.58887	-972.22217	177.07307	1394.73938	-1199.09119	172.3251	1215.83057	-1292.93848	182.65234	1062.55164	-1306.50537	267.70825	983.74255	-1333.1615	391.90524	923.45239	-1318.60254	346.86737	891.36743	-1342.23755	422.50873	858.3493	-1356.55273	164.54529	1381.89941	-886.94434	94.42568	1180.18188	-798.22766	86.14892	1056.88574	-803.57092	92.58195	936.59094	-779.10004	145.83968	806.69965	-808.36346	106.25097	815.30139	-766.01996	125.537	731.08289	-774.10138	222.73207	922.91235	-1156.72583	242.13103	931.13129	-942.86267	41.67095	938.77032	-1087.5094	56.24702	944.0321	-942.01129	161.30559	588.26074	-1217.1366	130.90385	456.86835	-1211.51965	-22.20764	348.93954	-1218.52307	-181.61224	195.47467	-1174.35547	-218.96404	218.04521	-1118.52002	-150.29044	48.01964	-1158.70093	248.3432	603.16113	-887.3609	292.74698	452.7049	-922.63751	259.66504	277.91306	-920.24286	252.77931	75.70223	-976.42041	205.93103	37.10307	-1028.42188	393.06024	39.72774	-974.77881	210.60738	1707.93799	-982.04218	1973.06555	1023.36591	-3102.01392	2012.4574	1021.9317	-3140.55688	NaN	NaN	NaN	NaN	NaN	NaN
128	1.27	230.42059	1675.76147	-1072.57751	237.58768	1675.474	-958.33685	120.19301	1617.83984	-1074.76123	124.78291	1615.7135	-954.01105	97.99185	1427.41858	-1040.63855	66.92281	1133.83179	-1037.94092	243.70428	1362.854	-1036.2666	290.22241	1209.16931	-1048.59375	46.96669	1228.65381	-969.82941	186.61572	1395.66052	-1197.95349	180.90591	1216.61511	-1291.70325	189.82326	1062.92285	-1304.34509	273.77017	982.72998	-1330.88647	397.13681	920.60852	-1315.88159	351.72009	889.25385	-1339.63806	426.9436	855.12231	-1353.79541	175.5757	1382.92761	-885.69501	107.74436	1180.65845	-795.90222	100.43335	1057.22095	-801.46411	108.22701	936.98273	-777.0033	162.53209	807.60187	-806.58173	122.95271	815.72552	-763.85785	143.24855	731.85846	-772.1145	233.90536	923.78882	-1154.84741	252.32416	932.0033	-940.73785	52.42871	938.88196	-1086.53882	66.46045	944.57684	-941.12451	178.89087	588.61566	-1215.56091	152.28923	456.83563	-1210.11963	-1.47215	351.7753	-1218.38049	-164.59761	203.4066	-1173.63623	-201.18411	227.53249	-1118.2334	-139.43233	53.67907	-1158.45447	255.31059	603.39001	-886.01605	297.60101	452.01706	-920.84253	261.82794	277.58652	-919.00092	252.9994	75.58553	-976.15521	205.93828	37.19753	-1028.151	393.23288	39.46976	-974.46802	222.36839	1708.76416	-980.21082	1973.12964	1023.59827	-3101.95068	2012.52527	1021.92902	-3140.70532	NaN	NaN	NaN	NaN	NaN	NaN
